<svg width="164" height="101" viewBox="0 0 164 101" fill="none" xmlns="http://www.w3.org/2000/svg">
<path d="M43.648 62L43.52 41.584L33.792 57.968H27.136L17.408 42.288V62H3.648V17.2H16.064L30.656 41.072L44.864 17.2H57.28L57.408 62H43.648ZM104.711 62L104.583 41.584L94.8545 57.968H88.1985L78.4705 42.288V62H64.7105V17.2H77.1265L91.7185 41.072L105.927 17.2H118.343L118.471 62H104.711ZM125.773 17.2H140.877V62H125.773V17.2Z" fill="white"/>
<path d="M154.228 13.872C156.703 13.872 158.729 14.6187 160.308 16.112C161.887 17.6053 162.676 19.5893 162.676 22.064C162.676 23.1733 162.527 24.2827 162.228 25.392C161.929 26.5013 161.247 28.1867 160.18 30.448L155.7 39.984H146.74L149.94 29.168C148.617 28.528 147.593 27.6107 146.868 26.416C146.143 25.1787 145.78 23.728 145.78 22.064C145.78 19.5893 146.569 17.6053 148.148 16.112C149.727 14.6187 151.753 13.872 154.228 13.872Z" fill="#00A3FF"/>
<path d="M33.824 93.192C32.16 93.192 30.56 92.9253 29.024 92.392C27.5093 91.8587 26.336 91.1547 25.504 90.28L26.432 88.456C27.2427 89.2667 28.32 89.928 29.664 90.44C31.008 90.9307 32.3947 91.176 33.824 91.176C35.8293 91.176 37.3333 90.8133 38.336 90.088C39.3387 89.3413 39.84 88.3813 39.84 87.208C39.84 86.312 39.5627 85.5973 39.008 85.064C38.4747 84.5307 37.8133 84.1253 37.024 83.848C36.2347 83.5493 35.136 83.2293 33.728 82.888C32.0427 82.4613 30.6987 82.056 29.696 81.672C28.6933 81.2667 27.8293 80.6587 27.104 79.848C26.4 79.0373 26.048 77.9387 26.048 76.552C26.048 75.4213 26.3467 74.3973 26.944 73.48C27.5413 72.5413 28.4587 71.7947 29.696 71.24C30.9333 70.6853 32.4693 70.408 34.304 70.408C35.584 70.408 36.832 70.5893 38.048 70.952C39.2853 71.2933 40.352 71.7733 41.248 72.392L40.448 74.28C39.5093 73.6613 38.5067 73.2027 37.44 72.904C36.3733 72.584 35.328 72.424 34.304 72.424C32.3413 72.424 30.8587 72.808 29.856 73.576C28.8747 74.3227 28.384 75.2933 28.384 76.488C28.384 77.384 28.6507 78.1093 29.184 78.664C29.7387 79.1973 30.4213 79.6133 31.232 79.912C32.064 80.1893 33.1733 80.4987 34.56 80.84C36.2027 81.2453 37.5253 81.6507 38.528 82.056C39.552 82.44 40.416 83.0373 41.12 83.848C41.824 84.6373 42.176 85.7147 42.176 87.08C42.176 88.2107 41.8667 89.2453 41.248 90.184C40.6507 91.1013 39.7227 91.8373 38.464 92.392C37.2053 92.9253 35.6587 93.192 33.824 93.192ZM55.7195 91.976C55.2928 92.36 54.7595 92.6587 54.1195 92.872C53.5008 93.064 52.8502 93.16 52.1675 93.16C50.5888 93.16 49.3728 92.7333 48.5195 91.88C47.6662 91.0267 47.2395 89.8213 47.2395 88.264V78.088H44.2315V76.168H47.2395V72.488H49.5115V76.168H54.6315V78.088H49.5115V88.136C49.5115 89.1387 49.7568 89.9067 50.2475 90.44C50.7595 90.952 51.4848 91.208 52.4235 91.208C52.8928 91.208 53.3408 91.1333 53.7675 90.984C54.2155 90.8347 54.5995 90.6213 54.9195 90.344L55.7195 91.976ZM75.0235 76.168V93H72.8475V89.928C72.2502 90.952 71.4288 91.752 70.3835 92.328C69.3382 92.8827 68.1435 93.16 66.7995 93.16C64.6022 93.16 62.8635 92.552 61.5835 91.336C60.3248 90.0987 59.6955 88.296 59.6955 85.928V76.168H61.9675V85.704C61.9675 87.4747 62.4048 88.8187 63.2795 89.736C64.1542 90.6533 65.4022 91.112 67.0235 91.112C68.7942 91.112 70.1915 90.5787 71.2155 89.512C72.2395 88.424 72.7515 86.92 72.7515 85V76.168H75.0235ZM86.9548 71.016C85.9734 71.016 85.2268 71.2827 84.7148 71.816C84.2241 72.3493 83.9788 73.1387 83.9788 74.184V76.168H89.1628V78.088H84.0428V93H81.7708V78.088H78.7628V76.168H81.7708V74.088C81.7708 72.552 82.2081 71.336 83.0828 70.44C83.9788 69.544 85.2374 69.096 86.8588 69.096C87.4988 69.096 88.1174 69.192 88.7148 69.384C89.3121 69.5547 89.8134 69.8107 90.2188 70.152L89.4508 71.848C88.7894 71.2933 87.9574 71.016 86.9548 71.016ZM97.7985 71.016C96.8172 71.016 96.0705 71.2827 95.5585 71.816C95.0678 72.3493 94.8225 73.1387 94.8225 74.184V76.168H100.007V78.088H94.8865V93H92.6145V78.088H89.6065V76.168H92.6145V74.088C92.6145 72.552 93.0518 71.336 93.9265 70.44C94.8225 69.544 96.0812 69.096 97.7025 69.096C98.3425 69.096 98.9612 69.192 99.5585 69.384C100.156 69.5547 100.657 69.8107 101.063 70.152L100.295 71.848C99.6332 71.2933 98.8012 71.016 97.7985 71.016ZM107.586 93.16C106.221 93.16 104.909 92.968 103.65 92.584C102.413 92.1787 101.442 91.6773 100.738 91.08L101.762 89.288C102.466 89.8427 103.352 90.3013 104.418 90.664C105.485 91.0053 106.594 91.176 107.746 91.176C109.282 91.176 110.413 90.9413 111.138 90.472C111.885 89.9813 112.258 89.2987 112.258 88.424C112.258 87.8053 112.056 87.3253 111.65 86.984C111.245 86.6213 110.733 86.3547 110.114 86.184C109.496 85.992 108.674 85.8107 107.65 85.64C106.285 85.384 105.186 85.128 104.354 84.872C103.522 84.5947 102.808 84.136 102.21 83.496C101.634 82.856 101.346 81.9707 101.346 80.84C101.346 79.432 101.933 78.28 103.106 77.384C104.28 76.488 105.912 76.04 108.002 76.04C109.09 76.04 110.178 76.1893 111.266 76.488C112.354 76.7653 113.25 77.1387 113.954 77.608L112.962 79.432C111.576 78.472 109.922 77.992 108.002 77.992C106.552 77.992 105.453 78.248 104.706 78.76C103.981 79.272 103.618 79.944 103.618 80.776C103.618 81.416 103.821 81.928 104.226 82.312C104.653 82.696 105.176 82.984 105.794 83.176C106.413 83.3467 107.266 83.528 108.354 83.72C109.698 83.976 110.776 84.232 111.586 84.488C112.397 84.744 113.09 85.1813 113.666 85.8C114.242 86.4187 114.53 87.272 114.53 88.36C114.53 89.832 113.912 91.0053 112.674 91.88C111.458 92.7333 109.762 93.16 107.586 93.16Z" fill="white"/>
<line x1="129" y1="92" x2="164" y2="92" stroke="white" stroke-width="2"/>
<path d="M16.16 77.16L4.384 81.8L16.16 86.44V88.424L2.24 82.856V80.744L16.16 75.144V77.16Z" fill="#00A3FF"/>
</svg>
